<?xml version="1.0" standalone="no"?>
<!DOCTYPE svg PUBLIC "-//W3C//DTD SVG 20010904//EN"
 "http://www.w3.org/TR/2001/REC-SVG-20010904/DTD/svg10.dtd">
<svg version="1.0" xmlns="http://www.w3.org/2000/svg"
 width="512.000000pt" height="512.000000pt" viewBox="0 0 512.000000 512.000000"
 preserveAspectRatio="xMidYMid meet">
<metadata>
Created by potrace 1.14, written by Peter Selinger 2001-2017
</metadata>
<g transform="translate(0.000000,512.000000) scale(0.100000,-0.100000)"
fill="#000000" stroke="none">
<path d="M1267 4814 c-1 -1 -48 -4 -105 -8 -56 -4 -108 -9 -115 -11 -6 -2 -25
-6 -42 -8 -37 -6 -110 -24 -150 -39 -45 -16 -169 -72 -175 -78 -3 -3 -18 -14
-34 -24 -68 -43 -196 -184 -196 -216 0 -5 -3 -10 -8 -10 -8 0 -44 -76 -62
-132 -6 -21 -16 -38 -21 -38 -6 0 -8 -4 -5 -9 4 -5 0 -38 -8 -73 -8 -34 -17
-82 -21 -105 -3 -23 -8 -57 -11 -75 -5 -38 -5 -339 0 -383 2 -16 7 -57 11 -90
3 -33 15 -115 26 -182 11 -68 17 -128 13 -135 -4 -6 -3 -8 3 -5 7 4 14 -12 19
-41 4 -26 9 -51 10 -57 5 -16 25 -98 29 -117 7 -32 86 -292 107 -350 l20 -57
-25 -68 c-32 -89 -64 -189 -72 -233 -4 -19 -10 -39 -13 -45 -4 -5 -7 -14 -8
-20 -1 -5 -14 -62 -29 -125 -15 -63 -29 -126 -31 -140 -2 -14 -7 -38 -11 -55
-4 -16 -7 -32 -8 -35 -1 -5 -14 -101 -20 -145 -2 -11 -6 -39 -9 -62 -16 -102
-22 -368 -12 -473 7 -68 20 -149 33 -200 3 -14 6 -37 7 -52 0 -14 4 -24 8 -22
4 3 10 -8 14 -23 29 -117 139 -275 256 -366 37 -29 199 -106 259 -122 77 -22
78 -22 139 -30 30 -4 64 -9 75 -12 42 -9 314 -11 400 -2 118 11 173 18 213 24
17 3 44 7 60 9 15 2 61 11 102 20 41 8 86 17 100 20 33 6 73 16 170 40 70 18
222 63 301 90 l95 33 95 -32 c86 -29 223 -71 259 -80 8 -2 35 -9 60 -15 136
-35 356 -79 420 -85 19 -2 49 -6 65 -9 143 -27 471 -27 635 0 113 19 330 103
360 140 7 8 17 14 22 14 17 0 97 82 147 150 129 176 184 408 176 730 -4 140
-10 216 -21 290 -3 19 -7 51 -10 70 -2 19 -6 46 -9 60 -3 14 -8 36 -11 50 -2
14 -7 39 -9 55 -5 34 -34 161 -64 280 -11 44 -40 144 -65 221 -25 78 -46 150
-46 160 0 11 12 53 26 94 50 146 132 453 148 555 4 20 8 40 10 44 2 3 6 29 10
56 6 46 9 69 21 135 30 165 24 574 -10 681 -4 10 -8 29 -9 42 -2 12 -6 29 -9
37 -3 8 -13 40 -23 70 -10 30 -24 62 -31 71 -7 8 -13 19 -13 23 0 16 -70 122
-107 161 -116 124 -256 196 -473 242 -14 3 -33 5 -43 5 -9 0 -16 2 -13 6 2 4
-24 8 -57 9 -122 4 -373 3 -402 -1 -16 -3 -59 -8 -95 -11 -36 -3 -72 -8 -80
-10 -17 -4 -92 -16 -130 -20 -14 -2 -25 -4 -25 -5 0 -1 -11 -3 -25 -6 -66 -12
-174 -35 -181 -39 -4 -3 -35 -11 -70 -19 -62 -13 -299 -81 -329 -93 -8 -3 -17
-7 -20 -7 -3 -1 -9 -4 -15 -7 -32 -19 -68 -16 -151 11 -49 17 -96 33 -104 37
-8 3 -24 8 -34 10 -11 2 -44 11 -75 20 -31 9 -116 30 -189 48 -73 17 -131 33
-128 35 2 3 -12 5 -32 6 -21 1 -68 7 -107 13 -38 7 -90 15 -115 17 -25 3 -51
7 -59 10 -8 2 -68 7 -135 10 -67 3 -140 6 -164 8 -24 1 -44 1 -45 0z"/>
</g>
</svg>
